<?xml version="1.0" encoding="UTF-8"?>
<svg version="1.1" xmlns="http://www.w3.org/2000/svg" width="512" height="512">
<path d="M0 0 C1.30661087 0.00273422 1.30661087 0.00273422 2.63961792 0.00552368 C16.73927325 0.05498598 30.47798399 0.77467347 44.375 3.3125 C45.27750488 3.4681543 46.18000977 3.62380859 47.10986328 3.78417969 C91.15543121 11.56652126 133.26370399 31.32281396 166.80297852 60.92919922 C167.93771155 61.9277079 169.07976837 62.9179149 170.22631836 63.90283203 C181.90952643 73.97836425 193.07702189 84.97880143 202.375 97.3125 C202.78878906 97.84987793 203.20257813 98.38725586 203.62890625 98.94091797 C238.59633348 144.42151119 257.1432593 199.17891811 256.8125 256.4375 C256.80793793 258.11628235 256.80793793 258.11628235 256.80328369 259.82897949 C256.73583932 276.62532671 256.12002315 292.87315943 252.375 309.3125 C252.05354004 310.76849609 252.05354004 310.76849609 251.72558594 312.25390625 C242.40995033 353.4216933 223.7980564 391.22064367 196.375 423.3125 C195.73820312 424.06144531 195.10140625 424.81039063 194.4453125 425.58203125 C182.62797532 439.07770621 169.88948412 451.74808025 155.375 462.3125 C154.22505169 463.16899066 153.07531411 464.02576433 151.92578125 464.8828125 C143.73410474 470.9234414 135.21854922 476.28255071 126.375 481.3125 C125.74319824 481.67698242 125.11139648 482.04146484 124.46044922 482.41699219 C98.38659159 497.34080158 69.0342672 506.84709322 39.375 511.3125 C38.24521729 511.4875708 37.11543457 511.6626416 35.95141602 511.84301758 C29.86480401 512.58503144 23.74444204 512.51501297 17.62109375 512.55078125 C16.96208635 512.55485678 16.30307896 512.5589323 15.62410164 512.56313133 C12.12220718 512.58391062 8.62035071 512.59823603 5.1184082 512.60766602 C2.27443445 512.61643974 -0.56903689 512.63711709 -3.4128418 512.66918945 C-20.85595893 512.86147435 -37.52161035 512.17075382 -54.625 508.3125 C-55.80408936 508.06089111 -56.98317871 507.80928223 -58.19799805 507.55004883 C-60.88170408 506.94624291 -63.53285777 506.28229235 -66.1875 505.5625 C-67.12400391 505.31137451 -68.06050781 505.06024902 -69.02539062 504.80151367 C-115.98752173 491.83030884 -162.50549124 464.43758537 -193.625 426.3125 C-194.35460937 425.47074219 -195.08421875 424.62898438 -195.8359375 423.76171875 C-225.87292147 388.75015542 -246.27466088 344.84329906 -253.625 299.3125 C-253.80160156 298.32677002 -253.97820312 297.34104004 -254.16015625 296.32543945 C-256.02473431 284.62770936 -255.99720768 272.93088838 -255.99560547 261.1105957 C-255.99994494 257.54523698 -256.0362734 253.98115384 -256.07421875 250.41601562 C-256.17573347 229.88619189 -254.0180041 209.65195341 -248.3125 189.875 C-248.01110107 188.80193604 -247.70970215 187.72887207 -247.39916992 186.62329102 C-236.32813657 148.01727542 -216.84701199 113.33858866 -189.8125 83.72265625 C-187.69233383 81.38668746 -185.6280269 79.00923125 -183.5625 76.625 C-180.55761474 73.24964943 -177.44220965 70.21537668 -173.98828125 67.3046875 C-172.16837564 65.7705522 -170.38245061 64.21541116 -168.60546875 62.6328125 C-155.36750115 50.92639856 -140.9914679 41.01408935 -125.625 32.3125 C-124.99754883 31.95091797 -124.37009766 31.58933594 -123.72363281 31.21679688 C-86.28160322 9.78355025 -42.93146836 -0.18799998 0 0 Z " fill="#FBD11C" transform="translate(255.625,-0.3125)"/>
<path d="M0 0 C4.15902947 1.63579502 6.94162113 4.66884288 10.02374268 7.78323364 C10.62335902 8.38114114 11.22297536 8.97904863 11.8407619 9.59507453 C13.85077458 11.60179033 15.85355089 13.61557584 17.85644531 15.62939453 C19.29501112 17.06852441 20.73401732 18.50721417 22.1734314 19.94549561 C26.0825199 23.85400944 29.98540399 27.76866652 33.88722324 31.68443537 C37.96492581 35.77462609 42.04827903 39.8591675 46.13104248 43.94430542 C53.86268641 51.68216974 61.58921722 59.42511897 69.31393504 67.16989696 C78.10798479 75.98628828 86.90770275 84.79701272 95.7079072 93.60725999 C113.81159649 111.73186396 131.90813715 129.86359149 150 148 C148.69316301 150.88330643 147.30277863 152.94564108 145.0640564 155.17645264 C144.163825 156.08080803 144.163825 156.08080803 143.2454071 157.00343323 C142.58869522 157.65295456 141.93198334 158.30247589 141.25537109 158.97167969 C140.56257553 159.6647673 139.86977997 160.35785492 139.1559906 161.07194519 C136.86651526 163.36002799 134.5700387 165.64094651 132.2734375 167.921875 C130.68402291 169.5075592 129.09504952 171.09368574 127.50650024 172.68023682 C123.32532415 176.85377854 119.13817654 181.02127917 114.94976807 185.18756104 C110.67643937 189.44042719 106.40877027 193.69896419 102.140625 197.95703125 C93.76595419 206.31025559 85.38496557 214.65711048 77 223 C78.31283842 225.90251957 79.71574174 227.96174705 81.97390747 230.20095825 C82.58247589 230.80938568 83.19104431 231.41781311 83.8180542 232.04467773 C84.48411682 232.70040771 85.15017944 233.3561377 85.83642578 234.03173828 C86.53897491 234.73136688 87.24152405 235.43099548 87.96536255 236.15182495 C89.48988525 237.66874166 91.01671395 239.18334352 92.54556656 240.69589615 C94.96159447 243.08642261 97.37134137 245.48311991 99.7795105 247.88156128 C104.88912176 252.9683089 110.00651033 258.04718834 115.125 263.125 C121.06183013 269.01471902 126.99547598 274.90757105 132.92077255 280.80889511 C135.30107628 283.17618148 137.68729911 285.5373921 140.07376099 287.89846802 C141.52358821 289.3410344 142.97313774 290.78387994 144.42236328 292.22705078 C145.09247437 292.88682922 145.76258545 293.54660767 146.45300293 294.22637939 C147.35739609 295.13056107 147.35739609 295.13056107 148.28005981 296.05300903 C148.80841494 296.57692293 149.33677006 297.10083683 149.88113594 297.64062691 C151 299 151 299 151 301 C133.35604397 306.30183298 112.114375 309.59663924 95 301 C79.80140293 291.46469911 67.23296942 277.44888977 55 264.5 C53.76252455 263.19061903 53.76252455 263.19061903 52.50004959 261.85478592 C42.0839128 250.78815616 31.93561817 239.49920164 22 228 C22.31497081 231.67981183 22.63192432 235.35945036 22.94921875 239.0390625 C23.03780151 240.07426025 23.12638428 241.10945801 23.21765137 242.17602539 C23.59419839 246.5335834 23.97150228 250.88654242 24.4753418 255.23144531 C25.57202874 265.45660179 20.28309465 271.80606749 14.59179688 279.70458984 C11.30053889 284.45066462 8.44911415 289.48344765 5.5300293 294.46386719 C5.09601807 295.18864258 4.66200684 295.91341797 4.21484375 296.66015625 C3.83448975 297.30605713 3.45413574 297.95195801 3.06225586 298.61743164 C2.71171143 299.0736792 2.36116699 299.52992676 2 300 C1.34 300 0.68 300 0 300 C-1.47705078 298.00317383 -1.47705078 298.00317383 -3.1953125 295.20703125 C-3.8258252 294.1917334 -4.45633789 293.17643555 -5.10595703 292.13037109 C-6.46299958 289.90035801 -7.81547149 287.6675577 -9.16357422 285.43212891 C-13.12983444 278.72158042 -13.12983444 278.72158042 -17.875 272.56640625 C-22.30868638 267.26291682 -23.40323901 262.52471605 -22.8046875 255.7265625 C-22.74990234 255.06329956 -22.69511719 254.40003662 -22.63867188 253.7166748 C-22.11832115 247.82018039 -21.30229612 241.96492481 -20.40234375 236.11523438 C-20.04586607 233.35512806 -19.96972575 230.7753843 -20 228 C-20.77544662 228.90202148 -21.55089325 229.80404297 -22.34983826 230.73339844 C-32.12910642 242.05465928 -42.17204714 253.11782567 -52.4375 264 C-53.24386902 264.85516205 -54.05023804 265.7103241 -54.88104248 266.59140015 C-90.26977151 303.869278 -90.26977151 303.869278 -113.51841736 305.04272461 C-125.55501568 305.10327553 -137.43488475 303.26033471 -149 300 C-144.88590566 295.096024 -140.61472792 290.47464193 -136.07666016 285.96313477 C-135.08048172 284.96673729 -135.08048172 284.96673729 -134.06417847 283.95021057 C-131.89150441 281.77822731 -129.71532128 279.60979721 -127.5390625 277.44140625 C-126.02284228 275.92705318 -124.50684424 274.41247763 -122.99105835 272.89768982 C-119.01818297 268.92861628 -115.04231269 264.96255619 -111.0657959 260.99713135 C-107.00167446 256.94327438 -102.94041378 252.88655363 -98.87890625 248.83007812 C-90.92205673 240.88392474 -82.96203806 232.94095423 -75 225 C-76.30683699 222.11669357 -77.69722137 220.05435892 -79.9359436 217.82354736 C-80.53609787 217.22064377 -81.13625214 216.61774017 -81.7545929 215.99656677 C-82.41130478 215.34704544 -83.06801666 214.69752411 -83.74462891 214.02832031 C-84.43742447 213.3352327 -85.13022003 212.64214508 -85.8440094 211.92805481 C-88.13348474 209.63997201 -90.4299613 207.35905349 -92.7265625 205.078125 C-94.31597709 203.4924408 -95.90495048 201.90631426 -97.49349976 200.31976318 C-101.67467585 196.14622146 -105.86182346 191.97872083 -110.05023193 187.81243896 C-114.32356063 183.55957281 -118.59122973 179.30103581 -122.859375 175.04296875 C-131.23404581 166.68974441 -139.61503443 158.34288952 -148 150 C-146.36420498 145.84097053 -143.33115712 143.05837887 -140.21676636 139.97625732 C-139.61885886 139.37664098 -139.02095137 138.77702464 -138.40492547 138.1592381 C-136.39820967 136.14922542 -134.38442416 134.14644911 -132.37060547 132.14355469 C-130.93147559 130.70498888 -129.49278583 129.26598268 -128.05450439 127.8265686 C-124.14599056 123.9174801 -120.23133348 120.01459601 -116.31556463 116.11277676 C-112.22537391 112.03507419 -108.1408325 107.95172097 -104.05569458 103.86895752 C-96.31783026 96.13731359 -88.57488103 88.41078278 -80.83010304 80.68606496 C-72.01371172 71.89201521 -63.20298728 63.09229725 -54.39274001 54.2920928 C-36.26813604 36.18840351 -18.13640851 18.09186285 0 0 Z " fill="#131211" transform="translate(255,92)"/>
<path d="M0 0 C6.37290319 2.48644501 11.83892199 7.78341561 15.0136013 13.7856245 C15.55634382 17.35624911 15.10845731 20.64368485 14.6073513 24.20359325 C14.43409828 25.75001507 14.43409828 25.75001507 14.2573452 27.32767773 C14.00218826 29.59860998 13.73325751 31.86802563 13.45250511 34.13593578 C12.91569213 38.59978473 12.4732478 43.07021808 12.03592873 47.54474735 C11.55611871 52.44966798 11.06017447 57.35263728 10.55119896 62.25461864 C10.43972086 63.32852698 10.43972086 63.32852698 10.32599068 64.42413044 C10.17401264 65.88686959 10.02193135 67.34959802 9.86974907 68.81231594 C9.63591269 71.06148505 9.4028596 73.31073406 9.17003441 75.56000805 C7.36503427 92.99345214 5.55114288 110.42610295 3.6386013 127.8481245 C3.55942467 128.57801586 3.48024803 129.30790722 3.3986721 130.0599165 C3.18277525 132.04310045 2.96165567 134.02571388 2.7401638 136.00828075 C2.62237572 137.0679707 2.50458763 138.12766064 2.38323021 139.21946239 C2.0136013 141.7856245 2.0136013 141.7856245 1.0136013 144.7856245 C-1.84995967 143.48567754 -3.9086605 142.11184377 -6.12488747 139.88764477 C-6.71937691 139.29590466 -7.31386635 138.70416454 -7.92637062 138.09449291 C-8.56654121 137.44713177 -9.20671181 136.79977062 -9.86628151 136.13279247 C-10.54961555 135.44975048 -11.2329496 134.76670849 -11.93699074 134.06296825 C-14.19260845 131.80595812 -16.44106091 129.5419482 -18.6895237 127.277812 C-20.25278762 125.71081765 -21.81649393 124.14426451 -23.38062477 122.57813549 C-27.49498315 118.45614309 -31.6032999 114.32817966 -35.71039772 110.19895458 C-39.90294035 105.98594866 -44.10115458 101.77860292 -48.2988987 97.57078075 C-56.53363398 89.31459961 -64.76199934 81.05210094 -72.9863987 72.7856245 C-71.69627695 69.95465001 -70.33984142 67.88517704 -68.15329933 65.67837048 C-67.57575401 65.09085003 -66.99820869 64.50332958 -66.403162 63.89800549 C-65.77143578 63.26561459 -65.13970955 62.63322369 -64.4888401 61.98166943 C-63.82197685 61.30648266 -63.1551136 60.63129589 -62.46804237 59.93564892 C-60.26346386 57.70698564 -58.0513082 55.4860465 -55.8379612 53.26609325 C-54.303327 51.72249518 -52.76877199 50.17881838 -51.23429298 48.63506603 C-48.01834077 45.40262794 -44.79802367 42.17460667 -41.57526588 38.94895458 C-37.43823186 34.80652172 -33.3176131 30.648158 -29.20074844 26.48569298 C-26.03852363 23.29379918 -22.8651776 20.11314502 -19.6885891 16.93555164 C-18.16380677 15.40655075 -16.64316478 13.87340968 -15.12670708 12.33615208 C-13.01029613 10.19302526 -10.87881663 8.06611407 -8.74274635 5.94260693 C-8.11506859 5.30009487 -7.48739082 4.65758282 -6.84069252 3.9956007 C-2.50239744 -0.27006295 -2.50239744 -0.27006295 0 0 Z " fill="#FAD01C" transform="translate(234.9863986968994,171.21437549591064)"/>
<path d="M0 0 C4.84529675 4.03884969 9.40762999 8.26710494 13.85327148 12.73974609 C14.49802933 13.38435791 15.14278717 14.02896973 15.80708313 14.69311523 C17.91413559 16.80085819 20.01763474 18.91210893 22.12109375 21.0234375 C23.59060627 22.49481727 25.06034135 23.9659748 26.5302887 25.43692017 C30.38099528 29.29142775 34.22868807 33.14892999 38.07574463 37.00708008 C42.00895449 40.95055623 45.9450298 44.89117004 49.88085938 48.83203125 C57.59003446 56.55190099 65.29602623 64.27493989 73 72 C68.96855066 76.83809148 64.74738954 81.3891552 60.27612305 85.8215332 C59.63311752 86.46307846 58.990112 87.10462372 58.32762146 87.76560974 C56.94395158 89.1455 55.55912861 90.52423481 54.17325401 91.90191078 C51.98157706 94.08074633 49.79310774 96.26275894 47.60542297 98.44560242 C42.96892287 103.07072301 38.32848863 107.69188393 33.6875 112.3125 C28.2909477 117.68546052 22.8960152 123.06002683 17.50525856 128.43880272 C15.34624665 130.59131961 13.1842531 132.74081129 11.0221405 134.89021301 C9.7069151 136.2018081 8.39182865 137.51354255 7.0769043 138.82543945 C6.4727771 139.42440033 5.8686499 140.02336121 5.24621582 140.64047241 C2.25554254 143.5406285 2.25554254 143.5406285 0 147 C-0.66 147 -1.32 147 -2 147 C-2.06184479 146.36236221 -2.12368958 145.72472443 -2.18740845 145.06776428 C-2.99643755 136.73233382 -3.80960885 128.3973102 -4.625 120.0625 C-4.72441202 119.04582811 -4.72441202 119.04582811 -4.82583237 118.0086174 C-7.24068698 93.32201873 -9.79259392 68.65250349 -12.45091248 43.99079895 C-12.78685188 40.82276536 -13.10621267 37.6534345 -13.42260742 34.48339844 C-13.7553221 31.17330668 -14.14684313 27.89087552 -14.6496582 24.60253906 C-15.73363638 16.35356919 -15.73363638 16.35356919 -13.66577148 12.53833008 C-11.77461889 10.30215137 -9.81842231 8.48919938 -7.5625 6.625 C-6.84255859 5.97273437 -6.12261719 5.32046875 -5.38085938 4.6484375 C-3.61605749 3.05894706 -1.82184478 1.52297905 0 0 Z " fill="#FBD11C" transform="translate(277,170)"/>
<path d="M0 0 C3.2586636 1.4264578 5.4024854 3.16704162 7.890625 5.6953125 C8.95410156 6.76845703 8.95410156 6.76845703 10.0390625 7.86328125 C10.76867187 8.60964844 11.49828125 9.35601562 12.25 10.125 C12.99507813 10.87910156 13.74015625 11.63320312 14.5078125 12.41015625 C16.3431342 14.26900772 18.1736191 16.13237005 20 18 C18.5735422 21.2586636 16.83295838 23.4024854 14.3046875 25.890625 C13.58925781 26.59960938 12.87382812 27.30859375 12.13671875 28.0390625 C11.39035156 28.76867187 10.64398438 29.49828125 9.875 30.25 C8.74384766 31.36761719 8.74384766 31.36761719 7.58984375 32.5078125 C5.73099228 34.3431342 3.86762995 36.1736191 2 38 C-1.2586636 36.5735422 -3.4024854 34.83295838 -5.890625 32.3046875 C-6.59960938 31.58925781 -7.30859375 30.87382812 -8.0390625 30.13671875 C-8.76867187 29.39035156 -9.49828125 28.64398438 -10.25 27.875 C-10.99507812 27.12089844 -11.74015625 26.36679688 -12.5078125 25.58984375 C-14.3431342 23.73099228 -16.1736191 21.86762995 -18 20 C-16.5735422 16.7413364 -14.83295838 14.5975146 -12.3046875 12.109375 C-11.23154297 11.04589844 -11.23154297 11.04589844 -10.13671875 9.9609375 C-9.39035156 9.23132813 -8.64398438 8.50171875 -7.875 7.75 C-7.12089844 7.00492188 -6.36679688 6.25984375 -5.58984375 5.4921875 C-3.73099228 3.6568658 -1.86762995 1.8263809 0 0 Z " fill="#F8CF1C" transform="translate(255,123)"/>
</svg>
